<?xml version="1.0" encoding="utf-8"?><svg xmlns="http://www.w3.org/2000/svg" width="530" height="85"><linearGradient id="g1" gradientUnits="userSpaceOnUse" x1="71.409" y1="6.551" x2="22.048" y2="67.588" gradientTransform="matrix(1 0 0 -1 0 86)"><stop offset="0" stop-color="#00ffae"/><stop offset="1" stop-color="#00496c"/></linearGradient><path fill="url(#g1)" d="M25.9,79.4c17.4,11,40.3,5.5,51.1-12.2s5.4-40.9-12-51.9S24.7,9.8,13.9,27.5S8.5,68.4,25.9,79.4z M41.4,21c7.5-2.2,15.7-1.3,22.6,2.6s12,10.4,14.2,18c2.2,7.7,1.3,16-2.5,23S65.5,76.8,57.9,79c-7.5,2.2-15.7,1.3-22.6-2.6	s-12-10.4-14.2-18c-2.2-7.7-1.3-16,2.5-23C27.4,28.4,33.8,23.2,41.4,21z"/><linearGradient id="g2" gradientUnits="userSpaceOnUse" x1="28.307" y1="20.176" x2="65.023" y2="85.094" gradientTransform="matrix(1 0 0 -1 0 86)"><stop offset="0" stop-color="#00ff93"/><stop offset="1" stop-color="#00496c"/></linearGradient><path fill="url(#g2)" d="M80.4,43.3C83.9,23.2,70.7,4.1,51,0.6C31.3-3,12.4,10.4,9,30.5c-3.5,20.1,9.7,39.2,29.4,42.7	S76.9,63.3,80.4,43.3z M22.6,50.2c-4.7-6.1-6.8-14-5.9-21.8c0.9-7.7,4.9-14.9,11-19.6c6-4.8,13.8-7,21.4-6s14.6,5,19.3,11.2	c4.7,6.1,6.8,14,5.9,21.8c-0.9,7.7-4.9,14.9-11,19.6c-6,4.8-13.8,7-21.4,6C34.3,60.4,27.3,56.4,22.6,50.2z"/><linearGradient id="g3" gradientUnits="userSpaceOnUse" x1="12.459" y1="77.392" x2="58.163" y2="10.429" gradientTransform="matrix(1 0 0 -1 0 86)"><stop offset="0" stop-color="#00ffae"/><stop offset="1" stop-color="#004961"/></linearGradient><path fill="url(#g3)" d="M33.5,6.2c-19.9,1.4-35,19-33.7,39.3s18.6,35.7,38.6,34.3c20-1.4,35.1-18.9,33.7-39.2	C70.8,20.2,53.5,4.9,33.5,6.2z M54,61.6c-4.7,6.1-11.8,10.1-19.4,11s-15.4-1.3-21.4-6.1s-9.9-12-10.8-19.7s1.3-15.6,6-21.7	s11.8-10.1,19.4-11s15.4,1.3,21.4,6.1s9.9,12,10.8,19.7C60.9,47.6,58.7,55.5,54,61.6z"/><linearGradient id="g4" gradientUnits="userSpaceOnUse" x1="85.893" y1="18.843" x2="36.807" y2="79.54" gradientTransform="matrix(1 0 0 -1 0 86)"><stop offset="0" stop-color="#00ffae"/><stop offset="1" stop-color="#00496c"/></linearGradient><path fill="url(#g4)" d="M70.9,27.1c-1.3-3-3.1-6.2-3.7-9.5c-0.1-0.3-0.1-0.6-0.1-0.8c-0.7-0.5-1.4-1-2.1-1.4	C51.7,6.9,35.2,8.1,23.4,17c0.1,0,0.3,0,0.4,0c1.4,0,2.8,0.1,4.1,0.3c1.4-0.2,2.7-0.3,4.1-0.3c4.5,0,8.9,1.1,12.8,3.2	c6.5-1.1,13.3,0.1,19.1,3.4c3.2,1.8,6.2,4.6,8.5,7.4c0-0.4,1.5,2,1.5,1.7C73.4,31.8,71.3,27.9,70.9,27.1z"/><path fill="#FFF" d="M103.1,43.6c0-16.6,12.7-30.3,30.2-30.3c8.9,0,14.7,2.1,20,5.9c0.9,0.6,2.3,2,0.5,4.6l-4.4,5.4	c-1.9,1.8-3.5,0.2-4.6-0.5c-3.4-2.3-6.9-3.6-12-3.6c-9.2,0-16.5,8.3-16.5,18.4c0,10.7,7.2,18.6,17.4,18.6c4.6,0,8.7-1.2,11.9-3.5	v-6.5c0,0,0.2-1.9-2.2-1.9s-6.7,0-8.6,0c-1.8,0-2-2.4-2-2.4v-6c0,0-0.2-2.6,2.6-2.6c2.2,0,18.9,0,18.9,0s3.5,0,3.5,4.4	c0,2.3,0,21,0,21c-5.9,5.1-14.1,9.3-24.6,9.3C115.4,73.8,103.1,61,103.1,43.6z M166.8,16c0-2.9,2.9-2.9,2.9-2.9h7.1	c0,0,2.7,0,2.7,3.1c0,1.5,0,43,0,43s0,2.3,2.4,2.3s20,0,23.2,0s3.1,2.5,3.1,2.5v6.7c0,0,0,2.5-3,2.5c-2.5,0-32.4,0-35.4,0	s-3-3.2-3-3.2S166.8,18.9,166.8,16z M394.4,15c0-2.9,2.9-2.9,2.9-2.9h7.1c0,0,2.7,0,2.7,3.1c0,1.5,0,43.8,0,43.8s0,2.3,2.4,2.3	s20,0,23.2,0c3.1,0,3.1,2.5,3.1,2.5v6.7c0,0,0,2.5-3,2.5c-2.5,0-32.4,0-35.4,0s-3-3.2-3-3.2S394.4,17.8,394.4,15z M208.2,43.6	c0-16.6,12.9-30.3,30.7-30.3s30.5,13.5,30.5,30.3c0,16.6-12.9,30.3-30.7,30.3C220.9,73.8,208.2,60.4,208.2,43.6z M256.1,43.6	c0-10-7.2-18.4-17.4-18.4s-17.3,8.2-17.3,18.4c0,10,7.2,18.4,17.4,18.4C249,61.9,256.1,53.8,256.1,43.6z M276.1,16.1	c0,0,0-3.4,3.3-3.4c2.4,0,23.4,0,23.4,0c6.6,0,11.8,1.8,15,5.2c2.6,2.7,3.9,8.1,3.9,12.3c0,6.6-3.5,9.8-7.6,12.2	c6.7,2.6,10.8,6.5,10.8,14.5c0,10.7-8.6,16.1-21.5,16.1c0,0-19,0-23.2,0s-4.2-4.3-4.2-4.3V16.1H276.1z M300.1,36.3	c5.6,0,9.1-1.8,9.1-6.4c0-3.8-3-7.8-8.3-7.8c0,0-6.6,0-9.5,0s-2.9,2.4-2.9,2.4v9.2c0,0,0,2.5,2.8,2.5	C292.9,36.3,300.1,36.3,300.1,36.3z M303.5,61.6c5.6,0,9-2,9-6.5c0-3.9-2.9-6.4-9.4-6.4c0,0-8.9,0-11.8,0s-2.9,2.5-2.9,2.5v7.4	c0,0,0,2.9,2.9,2.9C293.6,61.6,303.5,61.6,303.5,61.6z M350.5,15.4c0,0,1.2-2.7,3.3-2.7c1.6,0,5.6,0,7.5,0s3,2.4,3,2.4l23.9,55.6	c0,0,1.3,2.5-1.3,2.5c-2.5,0-5.4,0-8,0c-2.7,0-3.7-2.1-3.7-2.1s-3.5-7.6-4.7-10.1c-1.3-2.8-3.7-2.6-3.7-2.6h-19.3	c0,0-2.3-0.2-3.5,2.7c-1.2,2.9-4.5,9.4-4.5,9.4s-0.9,2.4-3.8,2.4c-3,0-5.1,0-7.6,0s-1.1-3.3-1.1-3.3L350.5,15.4z M364.1,45.1	c0,0-5.4-13.4-6.1-15.2c-0.7-1.8-1.5-0.1-1.5-0.1L350.4,45c0,0-0.9,2,1.6,2c1.8,0,7.5,0,10.4,0S364.1,45.1,364.1,45.1z M462.6,15.8	c0-3,3.1-3,3.1-3h6.1c0,0,3.5,0,3.5,3.6s0,51.3,0,54.2s-3.5,2.8-3.5,2.8h-6.2c0,0-2.9,0-2.9-2.8C462.6,68.4,462.6,18.8,462.6,15.8z M496.1,24.3c0,0-6.1,0-10,0s-3.9-2.9-3.9-2.9v-6.2c0,0,0.3-2.8,3.4-2.8c2.8,0,36.9,0,40.6,0s3.7,3,3.7,3V21c0,0,0,3.3-4.4,3.3	c-3.2,0-10,0-10,0s-3.1,0.3-3.1,3.8s0,36.5,0,40.9s-3.7,4.4-3.7,4.4h-5.2c0,0-3.8,0-3.8-4.2c0-1.8,0-37.7,0-41.3	S496.1,24.3,496.1,24.3z"/></svg>