<?xml version="1.0" encoding="utf-8"?><svg id="Слой_1" xmlns="http://www.w3.org/2000/svg" width="500" height="85"><path fill="#F5A127" d="M24.4,58.6c-0.4,0.7-0.9,0.9-1.4,0.9s-1.4-0.2-1.6-1C16.9,46.1,12,35.3,7.2,26.2v29.9c0,1.5,1.9,2.1,4,2.1 c0.5,0,0.7,0.4,0.7,0.9S11.7,60,11.2,60c-0.8,0-3.2-0.2-5.4-0.2c-2.3,0-4.3,0.2-5.1,0.2C0.2,60,0,59.6,0,59.1s0.2-0.9,0.7-0.9 c2.1,0,3.8-0.6,3.8-2V21.8c0-1.2-1.7-1.8-3.8-1.8C0.2,20,0,19.5,0,19s0.2-1,0.7-1c0.8,0,3.5,0.2,7.4,0.2c4,0,7.1-0.2,7.9-0.2 c0.5,0,0.7,0.5,0.7,1s-0.2,1-0.7,1c-1.8,0-3,0.7-3,1.5c0,0.2,0.1,0.3,0.1,0.5c3.7,7.3,8.9,18,12.2,27.9c2.6-4.5,8-18.1,13-28.1 c0.1-0.2,0.2-0.5,0.2-0.7c0-1.1-1.8-1.2-3.2-1.2c-0.5,0-0.7-0.5-0.7-1s0.2-1,0.7-1c0.8,0,3.3,0.2,7.2,0.2c4,0,6.6-0.2,7.4-0.2 c0.5,0,0.7,0.5,0.7,1s-0.2,1-0.7,1c-2.1,0-3.8,0.5-3.8,1.8v34.6c0,1.3,1.7,1.8,3.8,1.8c0.5,0,0.7,0.4,0.7,0.9s-0.2,0.9-0.7,0.9 c-0.8,0-3.3-0.2-7.3-0.2c-3.9,0-6.4,0.2-7.2,0.2c-0.5,0-0.7-0.4-0.7-0.9s0.2-0.9,0.7-0.9c2.1,0,3.8-0.6,3.8-1.8V26.2L24.4,58.6z M184.4,56.4c0,1.3,1.7,1.8,3.8,1.8c0.5,0,0.7,0.4,0.7,0.9s-0.2,0.9-0.7,0.9c-0.8,0-3.4-0.2-7.4-0.2c-3.9,0-6.4,0.2-7.3,0.2 c-0.5,0-0.7-0.4-0.7-0.9s0.2-0.9,0.7-0.9c2.1,0,3.8-0.6,3.8-1.8V21.8c0-1.2-1.7-1.8-3.8-1.8c-0.5,0-0.7-0.5-0.7-1s0.2-1,0.7-1 c0.8,0,3.3,0.2,7.3,0.2s6.6-0.2,7.4-0.2c0.5,0,0.7,0.5,0.7,1s-0.2,1-0.7,1c-2.1,0-3.8,0.5-3.8,1.8V56.4z M272.4,68.1 c0.7,0,0.9,0.2,0.9,0.6c0,0.6-0.4,1.2-1.2,1.3c-1.4,0.3-2.7,0.4-3.8,0.4c-8.1,0-9.9-4.8-12.6-10.3c-1.3,0.3-2.8,0.5-4.4,0.5 c-11.8,0-20.7-9.5-20.7-21.6c0-12.2,8.9-21.6,20.7-21.6C263,17.4,272,26.9,272,39c0,8.5-4.4,15.6-11.1,19.2 C264.4,62.4,266.3,68.1,272.4,68.1z M264.1,39c0-10.9-5.4-19.5-12.9-19.5s-12.9,8.6-12.9,19.5s5.4,19.6,12.9,19.6 c1.1,0,2.3-0.2,3.3-0.5c-1.5-2.4-3.6-4.1-8-4.1c-0.4,0-0.6-0.3-0.6-0.6c0-0.5,0.4-1,1.1-1c5.3,0,8.7,1.5,11.3,3.6 C261.9,52.7,264.1,46.9,264.1,39z"/><path fill="#FFF" d="M83.8,56.4c0,1.2,1.7,1.8,3.8,1.8c0.5,0,0.7,0.4,0.7,0.9S88.1,60,87.6,60c-0.8,0-3.6-0.2-9.1-0.2 c-0.8,0-1.1-1.1-1.2-3.2c-1.8,2.4-4.5,3.9-8.8,3.9c-6.9,0-13.2-5.6-13.2-14.8c0-8.1,6.6-14.7,13.2-14.7c4.3,0,7.3,1.4,9,3.9 c3.1-1.9,4.2-4.2,5.3-4.2c0.7,0,1,0.3,1,1.5C83.8,32.2,83.8,56.4,83.8,56.4z M77.2,39.8c0-4.2-3.3-6.7-6.9-6.7 c-5.1,0-7.8,4.7-7.8,10.9c0,8.8,3,13.9,8.2,13.9c3.3,0,6.5-2,6.5-6.7V39.8z M118.8,55.2c0.7,2.4,2.4,3,4.6,3c0.5,0,0.7,0.4,0.7,0.9 s-0.2,0.9-0.7,0.9c-0.8,0-2.1-0.2-6.1-0.2c-1.6,0-3.5,0.2-4.3,0.2c-0.9,0-1.2-0.6-1.3-1.7c-0.2-7.6-4.6-12.6-10.3-12.8v10.9 c0,1.3,1,2,3,2c0.5,0,0.7,0.3,0.7,0.8s-0.2,0.8-0.7,0.8c-0.8,0-2.4-0.2-6.4-0.2c-3.9,0-6.2,0.2-7,0.2c-0.5,0-0.7-0.4-0.7-0.9 s0.2-0.9,0.7-0.9c2.1,0,3.8-0.6,3.8-1.8V21.8c0-1.2-1.7-1.8-3.8-1.8c-0.5,0-0.7-0.5-0.7-1s0.2-1,0.7-1c1.2,0,3.9,0.2,9.7,0.2 c0.7,0,1,0.4,1,1.3c0,1.5-0.3,4.1-0.3,14.1v10c5.7-0.1,9.5-4.9,9.5-7.9c0-1.3-0.8-2.2-2.7-2.2c-0.5,0-0.7-0.4-0.7-0.9 s0.2-0.9,0.7-0.9c0.8,0,3,0.2,7,0.2s6.7-0.2,7.5-0.2c0.5,0,0.7,0.4,0.7,0.9s-0.2,0.9-0.7,0.9c-3,0-3.8,0.8-5.1,2.7 c-2.6,3.9-6.7,7-11,8.1C113.6,45.2,117.6,50.6,118.8,55.2z M134.5,45.2c0,9.6,3.8,12.9,8.2,12.9c3.8,0,6.8-1.8,8.3-4.9 c0.4-0.6,0.9-0.8,1.5-0.8c0.5,0,1,0.4,0.7,1c-1.3,3-4.8,7.3-12.1,7.3c-7.4,0-14-5.8-14-14.7c0-8.6,6.4-14.8,14.4-14.8 S154,37.6,154,44c-0.7,0.2-4.1,0.6-11.3,0.6c-3.5,0-5.2-0.1-8.2-0.3C134.5,44.2,134.5,44.7,134.5,45.2z M147.2,42.2 c0-6.7-2.1-9.2-6-9.2c-3.5,0-6.2,2.7-6.7,9.2H147.2z M196.6,51.5V33.8c-2,0-3.6,0.1-4.2,0.1c-0.5,0-0.7-0.5-0.7-1s0.2-1.1,0.7-1.1 c5.4,0,8.6-2,8.6-8.7c0-0.5,0.5-0.7,1-0.7s1.1,0.2,1.1,0.8v8.7c3.1-0.1,7.9-0.2,8.5-0.2c0.5,0,0.7,0.7,0.7,1.1 c0,0.5-0.2,1.2-0.7,1.2c-0.6,0-5.4-0.1-8.5-0.2v19.8c0,2.9,1.2,4.2,3.2,4.2s3.3-1,4.6-3c0.4-0.6,0.9-0.8,1.5-0.8 c0.7,0,1,0.7,0.7,1.1c-1.4,2.8-4.2,5.3-8.8,5.3C199.8,60.5,196.6,58.1,196.6,51.5z M306,56.5c0,1.2,1.7,1.8,3.8,1.8 c0.5,0,0.7,0.4,0.7,0.9s-0.2,0.9-0.7,0.9c-0.8,0-3.3-0.2-9.1-0.2c-0.7,0-1-0.4-1.1-1.3c-0.1-0.7-0.2-2.6-0.2-3.8 c-1.9,2.8-5.5,5.6-10.4,5.6c-6.4,0-9.5-2.7-9.5-9.1v-16c0-1.3-1.7-1.8-3.8-1.8c-0.5,0-0.7-0.4-0.7-0.9s0.2-0.9,0.7-0.9 c0.8,0,3.5,0.2,9.6,0.2c0.7,0,1,0.4,1,1.3c0,1.5-0.3,3.8-0.3,10.5v6.9c0,4.5,1.3,6.9,5.1,6.9c4.5,0,8.3-3.6,8.3-9.1v-13 c0-1.3-1.7-1.8-3.8-1.8c-0.5,0-0.7-0.4-0.7-0.9s0.2-0.9,0.7-0.9c0.8,0,4.4,0.2,9.6,0.2c0.7,0,1,0.4,1,1.3c0,1.5-0.3,4-0.3,11.2 L306,56.5L306,56.5z M342.4,56.4c0,1.2,1.7,1.8,3.8,1.8c0.5,0,0.7,0.4,0.7,0.9s-0.2,0.9-0.7,0.9c-0.8,0-3.6-0.2-9.1-0.2 c-0.8,0-1.1-1.1-1.2-3.2c-1.8,2.4-4.5,3.9-8.8,3.9c-6.9,0-13.2-5.6-13.2-14.8c0-8.1,6.6-14.7,13.2-14.7c4.3,0,7.3,1.4,9,3.9 c3.1-1.9,4.2-4.2,5.3-4.2c0.7,0,1,0.3,1,1.5L342.4,56.4L342.4,56.4z M335.8,39.8c0-4.2-3.3-6.7-6.9-6.7c-5.1,0-7.8,4.7-7.8,10.9 c0,8.8,3,13.9,8.2,13.9c3.3,0,6.5-2,6.5-6.7L335.8,39.8L335.8,39.8z M360.1,56.4c0,1.3,1.7,1.8,3.8,1.8c0.5,0,0.7,0.4,0.7,0.9 s-0.2,0.9-0.7,0.9c-0.8,0-3.1-0.2-7.1-0.2c-3.9,0-6.2,0.2-7,0.2c-0.5,0-0.7-0.4-0.7-0.9s0.2-0.9,0.7-0.9c2.1,0,3.8-0.6,3.8-1.8 V35.3c0-1.2-1.7-1.8-3.8-1.8c-0.5,0-0.7-0.4-0.7-0.9s0.2-0.9,0.7-0.9c0.8,0,3.4,0.2,9.1,0.2c0.7,0,1,0.4,1.1,1.3 c0.1,0.7,0.2,1.8,0.2,2.7c2.1-2.8,5.2-4.8,10.2-4.8c6.4,0,10,2.7,10,9.1v16.3c0,1.3,1.7,1.8,3.8,1.8c0.5,0,0.7,0.4,0.7,0.9 s-0.2,0.9-0.7,0.9c-0.8,0-3.1-0.2-7.1-0.2c-3.9,0-6.1,0.2-7,0.2c-0.5,0-0.7-0.4-0.7-0.9s0.2-0.9,0.7-0.9c2.1,0,3.8-0.6,3.8-1.8V41 c0-4.5-1.7-7-5.6-7c-4.5,0-8,2.6-8,8.1v14.3H360.1z M390.8,51.5V33.8c-2,0-3.6,0.1-4.2,0.1c-0.5,0-0.7-0.5-0.7-1s0.2-1.1,0.7-1.1 c5.4,0,8.6-2,8.6-8.7c0-0.5,0.5-0.7,1-0.7s1.1,0.2,1.1,0.8v8.7c3.1-0.1,7.9-0.2,8.5-0.2c0.5,0,0.7,0.7,0.7,1.1 c0,0.5-0.2,1.2-0.7,1.2c-0.6,0-5.4-0.1-8.5-0.2v19.8c0,2.9,1.2,4.2,3.2,4.2s3.3-1,4.6-3c0.4-0.6,0.9-0.8,1.5-0.8 c0.7,0,1,0.7,0.7,1.1c-1.4,2.8-4.2,5.3-8.8,5.3C394,60.5,390.8,58.1,390.8,51.5z M439.6,56.5c0,1.2,1.7,1.8,3.8,1.8 c0.5,0,0.7,0.4,0.7,0.9s-0.2,0.9-0.7,0.9c-0.8,0-3.3-0.2-9.1-0.2c-0.7,0-1-0.4-1.1-1.3c-0.1-0.7-0.2-2.6-0.2-3.8 c-1.9,2.8-5.5,5.6-10.4,5.6c-6.4,0-9.5-2.7-9.5-9.1v-16c0-1.3-1.7-1.8-3.8-1.8c-0.5,0-0.7-0.4-0.7-0.9s0.2-0.9,0.7-0.9 c0.8,0,3.5,0.2,9.6,0.2c0.7,0,1,0.4,1,1.3c0,1.5-0.3,3.8-0.3,10.5v6.9c0,4.5,1.3,6.9,5.1,6.9c4.5,0,8.3-3.6,8.3-9.1v-13 c0-1.3-1.7-1.8-3.8-1.8c-0.5,0-0.7-0.4-0.7-0.9s0.2-0.9,0.7-0.9c0.8,0,4.4,0.2,9.6,0.2c0.7,0,1,0.4,1,1.3c0,1.5-0.3,4-0.3,11.2 L439.6,56.5L439.6,56.5z M486.5,31c6.4,0,9.4,3,9.4,9.1v16.3c0,1.3,1.5,1.8,3.5,1.8c0.5,0,0.7,0.4,0.7,0.9s-0.2,0.9-0.7,0.9 c-0.8,0-2.8-0.2-6.8-0.2c-3.9,0-6,0.2-6.8,0.2c-0.5,0-0.7-0.4-0.7-0.9s0.2-0.9,0.7-0.9c2,0,3.5-0.6,3.5-1.8V41c0-4.8-1.7-7-5.4-7 c-4.4,0-7.2,2.9-7.2,7.4v15c0,1.3,1.5,1.8,3.5,1.8c0.5,0,0.7,0.4,0.7,0.9s-0.2,0.9-0.7,0.9c-0.8,0-2.9-0.2-6.9-0.2 c-3.9,0-6,0.2-6.8,0.2c-0.5,0-0.7-0.4-0.7-0.9s0.2-0.9,0.7-0.9c2,0,3.6-0.6,3.6-1.8V41c0-4.7-1.3-7-5-7c-4.2,0-7.6,2.6-7.6,8.1 v14.3c0,1.3,1.4,1.8,3.5,1.8c0.5,0,0.7,0.4,0.7,0.9S461.5,60,461,60c-0.8,0-2.9-0.2-6.9-0.2c-3.9,0-6.2,0.2-7,0.2 c-0.5,0-0.7-0.4-0.7-0.9s0.2-0.9,0.7-0.9c2.1,0,3.8-0.6,3.8-1.8V35.3c0-1.2-1.7-1.8-3.8-1.8c-0.5,0-0.7-0.4-0.7-0.9 s0.2-0.9,0.7-0.9c0.8,0,3.4,0.2,9.1,0.2c0.7,0,1,0.4,1.1,1.3c0.1,0.7,0.2,1.8,0.2,2.7c2.1-2.8,4.8-4.8,9.8-4.8 c4.9,0,7.3,1.7,8.8,5.5C478.3,33.2,481.7,31,486.5,31z"/></svg>