<?xml version="1.0" encoding="utf-8"?>
<svg xmlns="http://www.w3.org/2000/svg" width="260" height="260" viewBox="0 0 260 260">
	<path fill="#231F20" d="M153.7 120.2a23.9 23.9 0 0 1-47.6 0 23.9 23.9 0 0 1 47.6 0zm1.8 123.7l.3-2.8.3-1.7c17.8-24.9 26.2-66 26.2-111 0-33-7.5-63.9-17.4-87.1-9.3-21.9-27.8-27.4-34.4-27.4-6.5 0-25.1 5.5-34.4 27.4a229.3 229.3 0 0 0-17.4 87.1c0 47.3 9.4 88 26.4 112.1l.1 1.3.1 1.7c-9.3-10.4-17-26.5-22.6-46.6a264.4 264.4 0 0 1-8.5-68.5c0-33.8 5.6-65.7 15.7-89.6C100.7 13.7 115.1 0 130.7 0s29.8 13.7 40.4 38.6c10.2 24 15.7 55.9 15.7 89.6 0 46.5-12.6 92.9-31.3 115.7zM39.6 54.4a13.9 13.9 0 1 1-27.8 0 13.9 13.9 0 1 1 27.8 0zm208.5-.8a13.9 13.9 0 1 1-27.8 0 13.9 13.9 0 1 1 27.8 0zm-103 192.5a13.9 13.9 0 1 1-27.8 0 13.9 13.9 0 1 1 27.8 0zM16.1 77.4l2.2 1.8 1.3 1.1c11.5 28.5 41.6 57.6 79.6 81.8a230 230 0 0 0 82.8 32.2c23.5 4 38.1-8.8 41.6-14.2s8.8-24-4.7-43.7A229.5 229.5 0 0 0 154.8 75C114.9 49.5 75.6 35.6 46 37l-1.1-.6-1.5-.9a116 116 0 0 1 51.4 6.1 263.6 263.6 0 0 1 62.4 29.7c28.5 18.2 52.4 40 67.1 61.4 15.4 22.3 19.2 41.7 10.8 54.8s-27.6 17.8-54.3 13.3a235.4 235.4 0 0 1-84.1-35c-39-24.9-71.5-60.5-80.6-88.4zM216.9 35l-2.5 1.2-1.6.7c-30.6-1.5-69.7 13.7-107.6 38a227.9 227.9 0 0 0-63.9 61.7c-13.4 19.7-8 38.3-4.5 43.7 3.5 5.5 18.1 18.1 41.6 14.1a229.6 229.6 0 0 0 82.6-32.5c39.7-25.6 69-55.4 80-82.8l1-.8 1.4-1a117.6 117.6 0 0 1-27.1 44.2 261.3 261.3 0 0 1-53 44.2 236.4 236.4 0 0 1-83.9 35.2c-26.6 4.6-45.9 0-54.3-13.1-8.4-13.1-4.6-32.5 10.7-54.8a235.6 235.6 0 0 1 66.9-61.7c39.1-25.1 84.9-39.7 114.2-36.3z"/>
</svg>