<?xml version="1.0" encoding="utf-8"?>
<svg version="1.1" xmlns="http://www.w3.org/2000/svg" viewBox="0 0 1038 200">
	<path fill="#fefefe" d="M443 53.4h8.6v48.9H443V53.4zm21.6 0h8l26.2 33.8V53.4h8.5v48.9H500l-27-34.8v34.8h-8.5V53.4zm67.3 7.9h-15.5v-7.9h39.7v8h-15.5v41h-8.7V61.3zm33.2-7.9h36.3v7.7h-27.7v12.7h24.5v7.7h-24.5v13.1h28v7.7h-36.6V53.4zm46.8 0h21.8c11.5 0 18.1 6.1 18.1 15.6 0 8-4.8 12.9-11.6 14.8l13.2 18.5h-10.1l-12.2-17h-10.6v17h-8.6V53.4zm21.2 24.3c6.1 0 10-3.2 10-8.3 0-5.3-3.8-8.1-10.1-8.1h-12.5v16.4h12.6zm29.3-24.3h8l26.2 33.8V53.4h8.5v48.9h-7.2l-27-34.8v34.8h-8.5V53.4zm72.5-.3h8l21.5 49.2h-9.1l-5-11.8h-23.1l-5 11.8h-8.8l21.5-49.2zm12.3 29.8l-8.5-19.6-8.4 19.6h16.9zm31.3-21.6H763v-7.9h39.7v8h-15.6v41h-8.7l.1-41.1zm33.8-7.9h8.6v48.9h-8.6V53.4zm19.5 24.4a25 25 0 0 1 25.7-25.3c15 0 25.5 11.4 25.5 25.3a25 25 0 0 1-25.7 25.3c-15 0-25.5-11.3-25.5-25.3zm42.1 0c0-9.5-6.9-17.4-16.6-17.4s-16.5 7.7-16.5 17.4c0 9.5 6.9 17.4 16.6 17.4 9.7.1 16.5-7.7 16.5-17.4zm19.4-24.4h8l26.2 33.8V53.4h8.5v48.9h-7.2l-27-34.8v34.8h-8.5V53.4zm72.5-.3h8l21.5 49.2h-9.1l-5-11.8h-23.1l-5 11.8h-8.8l21.5-49.2zm12.3 29.8l-8.5-19.6-8.4 19.6h16.9zm25.6-29.5h8.6v41.1h25.7v7.8h-34.3V53.4zm-565.5 86.8l3.5-4.3c3.3 2.8 6.4 4.4 10.6 4.4 3.7 0 6-1.7 6-4.3 0-2.4-1.4-3.7-7.6-5.2-7.2-1.7-11.2-3.8-11.2-10.1 0-5.8 4.8-9.8 11.5-9.8 4.9 0 8.8 1.5 12.2 4.3l-3.2 4.5c-3-2.2-6.1-3.5-9.2-3.5-3.5 0-5.5 1.8-5.5 4.1 0 2.6 1.5 3.8 8 5.3 7.2 1.7 10.8 4.3 10.8 10 0 6.3-5 10-12.1 10a21 21 0 0 1-13.8-5.4zm31.7-12a17 17 0 0 1 17.4-17.4c6.2 0 10 2.2 13.2 5.3l-3.8 4.4a13.5 13.5 0 0 0-9.5-4.2c-6.4 0-11.1 5.3-11.1 12 0 6.6 4.7 12 11.1 12 4.1 0 6.8-1.7 9.7-4.4l3.8 3.8c-3.5 3.7-7.4 6-13.7 6a17 17 0 0 1-17.1-17.5zm37.4-16.9h5.9V145h-5.9v-33.7zm14.9 0h25.1v5.3h-19.1v8.7H545v5.3h-16.9v9h19.3v5.3h-25.2v-33.6zm32.3 0h5.5l18.1 23.3v-23.3h5.9V145h-5l-18.6-24v24h-5.9v-33.7zm36.5 16.9a17 17 0 0 1 17.4-17.4c6.2 0 10 2.2 13.2 5.3l-3.8 4.4a13.5 13.5 0 0 0-9.5-4.2c-6.4 0-11.1 5.3-11.1 12 0 6.6 4.7 12 11.1 12 4.1 0 6.8-1.7 9.7-4.4l3.8 3.8c-3.5 3.7-7.4 6-13.7 6a17 17 0 0 1-17.1-17.5zm37.1-16.9h25v5.3H634v8.7h16.9v5.3H634v9h19.3v5.3h-25.2v-33.6zm46.7 0h5.9v14h16.1v-14h5.9V145h-5.9v-14.2h-16V145h-5.9l-.1-33.7zm36.1 19.5v-19.4h5.9v19.1c0 6.3 3.3 9.6 8.5 9.6s8.5-3.2 8.5-9.4v-19.4h5.9v19.1c0 10-5.7 15.1-14.5 15.1-8.7.1-14.3-5-14.3-14.7zm37-19.5H763c3.8 0 6.9 1.1 8.8 3a7.5 7.5 0 0 1 2.2 5.7c0 4-2.3 6.2-4.8 7.5 4 1.4 6.7 3.6 6.7 8.3 0 6-5 9.3-12.5 9.3h-15.6l.1-33.8zm14 14.3c3.8 0 6.4-1.5 6.4-4.7 0-2.7-2.1-4.3-5.9-4.3h-8.5v9h8zm1.7 14.2c4 0 6.5-1.6 6.5-4.7 0-2.8-2.2-4.6-6.9-4.6h-9.4v9.3h9.8zM21.5 118.6v24.6H10.9S.3 143.2.3 130.3V88.8l21.2 29.8zM0 51.1h10.9s10.9-.3 10.9 12.4V83L0 51.1zm102.3 14.3l53.2 54.6V145.4l-69-68.8c-5.6-6.2-11.2-9.3-16.9-9.3-2.8 0-5.1.6-6.9 1.8-1.8 1.2-2.7 2.5-2.7 4.1s.7 3 1.9 4.3c1.7 1.8 6.9 5.7 15.6 11.6 8.1 5.4 13 8.9 14.8 10.3 4.3 3.5 7.4 6.9 9.2 10s2.7 6.7 2.7 10.5c0 7.4-3.2 13.5-9.5 18.3a40 40 0 0 1-24.8 7.2 44 44 0 0 1-20.8-4.7 50 50 0 0 1-15.8-14.3L0 79.7V51.3l47.8 65.5c7.4 8.7 15.6 12.4 22.6 12.4 3.7 0 6.7-.8 9.2-2.5 2.5-1.7 3.7-3.7 3.7-5.9a9 9 0 0 0-2.8-6.1c-1.9-2-6-5.1-12.4-9.3-12.2-8-20-14.2-23.6-18.5a20.8 20.8 0 0 1-5.3-13c0-6.3 3-11.6 8.9-16.1s13.2-6.7 21.9-6.7c5.6 0 10.9 1.1 15.9 3.1a52 52 0 0 1 16.4 11.2zm53.2 80l-10.8.1s-10.8-.3-10.8-10.6v-12.4l21.6 22.9zm-21.6-52.2V51.1h10s11.5 0 11.5 13.1v22.9h32.9c4.4 0 4.4-3.6 4.4-3.6V64.7s-.2-13.5 11.4-13.5h10v84.2c0 10-9.5 10-9.5 10h-12v-39.8h-33.3c-4 0-4 3.8-4 3.8v4.4l-21.4-20.6zm213.3-.8a18.3 18.3 0 1 1-36.6 0 18.3 18.3 0 0 1 36.6 0zm2 95.2l.3-2.1.2-1.3c13.7-19.2 20.2-50.8 20.2-85.5a175 175 0 0 0-13.4-67C349.3 14.8 335 10.6 330 10.6s-19.3 4.2-26.4 21.1a175.4 175.4 0 0 0-13.4 67c0 36.3 7.2 67.7 20.3 86.3l.1 1 .1 1.3a90.4 90.4 0 0 1-17.3-35.9c-4.3-15.7-6.6-34-6.6-52.7 0-26 4.3-50.5 12.1-69C307 10.6 318.1 0 330 0s23 10.6 31.1 29.7c7.8 18.4 12.1 43 12.1 69 .1 35.7-9.6 71.5-24 88.9zm0 0l.3-2.1.2-1.3c13.7-19.2 20.2-50.8 20.2-85.5a175 175 0 0 0-13.4-67C349.3 14.8 335 10.6 330 10.6s-19.3 4.2-26.4 21.1a175.4 175.4 0 0 0-13.4 67c0 36.3 7.2 67.7 20.3 86.3l.1 1 .1 1.3a90.4 90.4 0 0 1-17.3-35.9c-4.3-15.7-6.6-34-6.6-52.7 0-26 4.3-50.5 12.1-69C307 10.6 318.1 0 330 0s23 10.6 31.1 29.7c7.8 18.4 12.1 43 12.1 69 .1 35.7-9.6 71.5-24 88.9zM258.7 41.8a10.7 10.7 0 1 1-21.4 0 10.7 10.7 0 0 1 21.4 0zm160.4-.6a10.7 10.7 0 1 1-21.4 0 10.7 10.7 0 0 1 21.4 0zm-77.9 148.1a10.7 10.7 0 1 1-21.4 0 10.7 10.7 0 0 1 21.4 0zM240.7 59.5l1.7 1.4 1 .9c8.8 21.9 32 44.3 61.2 62.9a175 175 0 0 0 63.7 24.8c18.1 3.1 29.3-6.7 32-10.9 2.7-4.2 6.8-18.5-3.6-33.6a178 178 0 0 0-49.3-47.3c-30.6-19.6-60.9-30.3-83.6-29.3l-.9-.5-1.2-.7a89.6 89.6 0 0 1 39.5 4.7 202.7 202.7 0 0 1 48 22.8c21.9 14 40.3 30.8 51.7 47.3 11.8 17.1 14.8 32.1 8.3 42.2-6.4 10-21.3 13.7-41.8 10.2a184 184 0 0 1-64.7-26.9c-30.1-19.1-55.1-46.5-62-68zM395.1 27l-2 .9-1.2.6c-23.5-1.2-53.7 10.5-82.8 29.3a176.5 176.5 0 0 0-49.2 47.5c-10.3 15.2-6.1 29.4-3.5 33.6 2.7 4.2 13.9 13.9 32 10.8a176.4 176.4 0 0 0 63.6-25C382.6 105 405 82 413.6 61l.8-.6 1.1-.8c-2.9 10.3-10 22-20.8 34a201.8 201.8 0 0 1-40.8 34 181.6 181.6 0 0 1-64.6 27.1c-20.5 3.5-35.3-.1-41.8-10.1-6.4-10-3.5-25.1 8.2-42.2a183.7 183.7 0 0 1 51.5-47.5c30.1-19.4 65.4-30.6 87.9-27.9z"/>
</svg>